<?xml version="1.0" encoding="UTF-8"?>
<!-- Created with Inkscape (http://www.inkscape.org/) -->
<svg id="svg1" width="1034" height="720" version="1.1" viewBox="0 0 1034 720" xmlns="http://www.w3.org/2000/svg">
 <g id="g1">
  <path id="path1" d="m550.33 701.87c-0.88598-2.3088 1.3149-3.8395 9.1681-6.3762 15.496-5.0055 21.423-7.4794 39.88-16.646 19.688-9.778 23-14.232 24.302-32.679 0.54659-7.7452 0.42666-8.4811-1.798-11.033-1.311-1.5036-5.5282-4.9067-9.3716-7.5623-12.27-8.4781-16.836-18.312-14.495-31.22 1.8978-10.466 9.6091-20.302 24.497-31.249 15.907-11.696 29.214-16.825 39.608-15.266 11.663 1.749 9.8622 6.3579-2.9901 7.6535-15.351 1.5475-32.866 11.764-43.984 25.656-3.8645 4.8286-5.2893 7.6334-6.4398 12.677-2.9738 13.037 2.0448 24.893 11.679 27.591 7.2297 2.0242 9.8068 0.53853 24.767-14.278 14.586-14.446 24.453-21.791 37.159-27.661 12.182-5.6279 21.072-8.1071 31.187-8.6966 8.1132-0.47287 9.4292-0.293 13.356 1.8255 5.4664 2.9491 8.7611 8.2256 7.7344 12.387-0.93074 3.7722-20.785 23.424-30.805 30.49-8.899 6.2761-20.06 11.708-27.087 13.181-5.9168 1.2411-13.179-0.44483-15.111-3.5082-1.9025-3.016 1.367-4.7065 11.996-6.2026 15.575-2.1922 27.539-8.6526 42.998-23.218 9.8958-9.3239 11.874-15.283 5.6523-17.024-14.062-3.9348-40.83 6.4864-62.994 24.525-5.8857 4.7901-13.521 14.76-15.727 20.536-1.6643 4.358-1.7247 5.7022-0.63107 14.061 1.3028 9.9582 0.90126 12.282-3.0451 17.62l-2.2013 2.9774 2.3563 2.5082c5.4749 5.8277 20.778 1.5183 44.508-12.534 2.2-1.3028 4.225-2.6138 4.5-2.9133s2.75-2.0876 5.5-3.9734c13.486-9.2481 32.461-25.276 47.41-40.048 27.904-27.572 76.474-87.869 85.961-106.72 1.1606-2.3056 3.6193-5.3431 5.4638-6.75 3.4205-2.6089 7.6648-3.427 7.6648-1.4773 0 1.0081-5.6865 13.466-17.889 39.194-2.8108 5.9259-5.1105 10.993-5.1105 11.261s-0.87897 2.3941-1.9533 4.7256c-2.8509 6.1871-5.8946 14.215-8.6218 22.739-3.4426 10.761-3.3802 22.764 0.16267 31.28 6.5322 15.701 22.69 23.8 44.56 22.335 9.3341-0.62522 20.362-3.7993 34.852-10.031 9.2392-3.9737 41.742-20.015 49-24.183 10.937-6.281 25.139-15.265 35.734-22.605 28.659-19.855 36.172-19.416 11.266 0.65713-5.7904 4.6669-24.559 17.658-31.052 21.493-13.924 8.2246-21.732 12.463-34.948 18.97-17.774 8.751-26.558 12.38-44.05 18.196-11.07 3.681-13.781 4.194-24.456 4.6265-11.151 0.45185-12.566 0.29315-19.87-2.2279-15.423-5.3232-24.787-12.682-28.649-22.511-2.5636-6.5259-2.7383-17.979-0.57949-38 0.74132-6.875 1.2247-12.643 1.0742-12.818-0.1505-0.17512-1.1054 0.86662-2.1219 2.315-4.3734 6.2312-23.747 29.696-30.977 37.52-16.895 18.282-30.755 30.541-55.871 49.421-30.394 22.847-50.045 31.824-68.68 31.374-8.9063-0.21489-18.386 2.928-39.942 13.243-22.033 10.543-24.985 11.771-37.326 15.527-9.3148 2.835-14.348 3.1133-15.219 0.84162zm-214.38-16.886c-2.5024-1.304-6.4068-4.2279-8.6766-6.4977-4.5501-4.55-6.1809-9.6124-6.3905-19.838-0.0643-3.1354-0.40179-8.5974-0.75-12.138-0.56243-5.7183-0.8006-6.2702-2.1331-4.9431-10.498 10.456-34.835 30.888-41.5 34.841-5.4034 3.2051-15.696 3.3252-20.647 0.24109-5.8397-3.6372-10.853-13.713-10.853-21.813 0-5.6944 3.8033-21.528 8.9427-37.229 5.2362-15.997 5.1301-15.998-12.943-0.12359-7.9258 6.9616-13.826 11.658-19.844 15.793-4.2536 2.9233-24.264 13.364-28.656 14.951-1.65 0.59644-6.375 2.5015-10.5 4.2334-25.412 10.67-55.349 17.299-78.5 17.383-11.797 0.043-15.127-0.30136-21.159-2.1886-17.278-5.4055-29.251-18.335-32.896-35.525-1.6646-7.8498-1.8761-18.495-0.41095-20.685 1.6761-2.5049 3.4657 0.98975 6.3007 12.304 4.4699 17.839 10.326 27.471 19.527 32.119 24.485 12.367 79.17 4.6928 123.14-17.281 25.23-12.609 56.135-42.585 86.047-83.459 3.549-4.8496 7.1278-9.8897 7.9528-11.2 0.825-1.3104 4.9266-7.4676 9.1147-13.682 6.8053-10.099 15.993-24.717 20.888-33.234 0.96921-1.6863 3.8367-6.666 6.3721-11.066s4.6132-8.258 4.6173-8.5733c4e-3 -0.31529-8.4301-1.5969-18.743-2.8479-28.318-3.4354-49.304-7.6796-65.75-13.297-25.863-8.8342-47.559-22.717-67.077-42.921-23.013-23.822-34.047-47.272-36.61-77.804-1.189-14.168 0.0538-36.27 2.6795-47.654 11.274-48.881 28.018-88.313 51.486-121.25 2.4868-3.4902 5.1755-7.3152 5.9748-8.5 7.5674-11.217 34.21-39.104 49.047-51.337 17.38-14.331 41.291-30.486 60-40.54 38.736-20.815 60.628-29.312 82.245-31.921 10.457-1.262 17.755-0.19311 17.755 2.6006 0 1.6096-7.9121 3.5427-14.5 3.5427-12.888 0-29.813 6.1543-64.566 23.477-17.675 8.8101-29.845 15.54-39.255 21.708-3.2014 2.0984-5.979 3.8153-6.1724 3.8153s-3.5124 2.1493-7.3755 4.7762c-35.694 24.272-65.596 55.319-85.445 88.719-0.65233 1.0976-1.9124 3.1226-2.8002 4.5-12.887 19.993-32.65 70.317-38.488 98.004-1.8696 8.866-2.5187 15.508-2.8338 29-1.0326 44.21 5.6951 63.817 31.387 91.474 20.351 21.908 47.34 38.966 75.049 47.437 16.05 4.9062 30.45 7.0278 54.671 8.0551 12.967 0.55 23.952 0.76767 24.411 0.48371 0.45945-0.28396 4.2586-6.4637 8.4424-13.733 29.042-50.458 49.164-82.504 66.694-106.22 2.033-2.75 5.628-7.6104 7.9889-10.801 26.497-35.807 62.327-73.574 91.793-96.754 21.423-16.853 46.559-32.702 72.5-45.714 24.713-12.396 36.621-15.783 59-16.782 30.392-1.3564 44.665 2.784 63.567 18.44 10.32 8.5472 16.422 17.604 20.447 30.347 3.4375 10.882 3.6496 30.28 0.46995 42.994-3.8666 15.461-13.212 37.664-22.001 52.27-3.6209 6.0174-3.327 6.4454 6.5168 9.4906 11.817 3.6555 20.914 8.0425 21.328 10.286 0.42752 2.3125-1.7986 4.0825-16.828 13.38-15.196 9.4005-29.062 19.586-34.672 25.469-6.5183 6.8354-7.7909 13.52-11.874 62.375-1.6983 20.319-4.6582 37.266-7.2373 41.436-4.8091 7.7756-8.8768 9.1428-11.91 4.003-2.5704-4.3555-13.26-12.813-32.307-25.56-36.656-24.532-42.533-29.379-35.624-29.379 2.2572 0 10.857 3.5594 15.098 6.2486 5.0786 3.2208 30.83 20.211 37.527 24.759 7.5608 5.135 15.112 8.9924 17.604 8.9924 0.7424 0 1.9773-1.0125 2.7443-2.25 1.9983-3.2243 4.6268-26.838 5.7047-51.25 1.0291-23.307 1.4085-26.875 3.5862-33.72 2.9774-9.3593 19.389-23.996 40.362-35.997 5.4913-3.1421 8.4233-6.2343 7.6996-8.1202-0.69952-1.8229-8.183-2.8787-12.757-1.7997-3.9254 0.92601-15.483 8.2335-20.944 13.242-17.505 16.055-31.925 28.076-42.533 35.46-14.137 9.8388-17.36 11.879-30.467 19.289-13.711 7.7511-26.581 14.147-28.467 14.147-1.8737 0-8.6629 5.6678-9.1596 7.6465-0.85979 3.4257-6.4579 7.4143-18.374 13.091-12.032 5.7323-11.955 5.6977-34 15.233-25.706 11.119-31.322 13.36-40.315 16.085-12.137 3.6776-14.908 1.9272-12.835-8.1076 0.69969-3.3875 1.0047-6.4266 0.67788-6.7534-0.32685-0.32686-5.4168 0.42067-11.311 1.6612-28.25 5.9456-64.834 11.089-85.717 12.051-12.938 0.596-16.89 1.1346-20.649 2.8145-6.2972 2.8138-7.6768 4.3845-14.407 16.401-3.1968 5.7081-8.7292 15.103-12.294 20.878-16.569 26.842-22.294 36.522-25.004 42.281-4.194 8.912-4.4732 10.248-2.5447 12.177 2.1922 2.1922 1.0634 4.322-7.5852 14.312-13.369 15.443-21.526 29.897-27.111 48.04-3.1423 10.208-4.6015 23.058-3.4731 30.583 0.99576 6.6402 5.479 11.608 10.476 11.608 6.2743 0 12.419-5.0011 39.122-31.84 14.041-14.113 27.482-27.202 29.868-29.087l4.3381-3.4274-0.69421 4.109c-0.38182 2.26-2.4709 9.4252-4.6424 15.923-6.6362 19.857-6.5563 39.445 0.18727 45.906 2.6675 2.5557 3.7287 2.8824 9.4164 2.8988 7.7466 0.0224 11.742-1.853 25.497-11.967 8.8286-6.4915 30.108-26.73 41.563-39.531 13.226-14.779 36.976-44.26 47.245-58.646 18.437-25.827 25.311-36.552 33.346-52.023 10.956-21.097 16.577-29.314 20.051-29.314 4.8909 0 3.5688 4.208-10.211 32.5-5.3575 11-10.87 22.475-12.25 25.5s-3.8514 8.425-5.4922 12c-14.845 32.344-27.29 72.482-27.231 87.824 0.0397 10.266 6.8518 20.388 17.478 25.972 4.4267 2.3261 6.3967 2.672 17.182 3.0168 13.634 0.43589 20.123-0.8996 36.463-7.5041 7.4755-3.0216 24.803-12.312 34.355-18.42 4.2964-2.7472 21.019-10.889 22.366-10.889 0.62387 0 1.1343 0.41547 1.1343 0.92327 0 6.7874-47.102 34.659-68 40.238-7.308 1.9509-11.024 2.274-26.5 2.3038-19.886 0.0384-23.355-0.64332-29.144-5.7262-8.8354-7.7576-12.822-17.658-12.779-31.739 0.0358-11.944 2.5809-23.595 10.555-48.317 5.6737-17.59 6.5983-22.312 3.6086-18.426-16.586 21.555-33.502 42.654-39.078 48.743-29.998 32.755-55.422 54.859-71.952 62.555-6.4729 3.0137-9.9475 3.0095-15.759-0.019zm31.05-218.04c6.875-0.87692 18.575-2.4466 26-3.4882s15.75-2.1612 18.5-2.4879c23.599-2.804 43.83-7.1766 53-11.455 9.5823-4.471 19.852-15.036 32.021-32.944 1.6382-2.4106 5.5562-8.0356 8.7066-12.5 8.0514-11.409 11.465-17.441 12.893-22.779 1.5709-5.8733 0.0687-10.154-7.7056-21.959-11.577-17.58-18.636-31.293-19.869-38.6-0.62844-3.725-0.41202-4.4989 1.8422-6.5881 2.7341-2.5338 11.382-4.6064 28.112-6.7369 4.95-0.63038 13.725-1.7922 19.5-2.5818s14.1-1.8771 18.5-2.4167c8.7371-1.0715 18.924-4.2491 21.871-6.8223 1.0289-0.89836 3.9539-4.3926 6.5-7.765 14.409-19.085 44.679-51.428 51.504-55.031 2.5017-1.3206 3.061-1.3307 4.3143-0.0773 1.699 1.699 4.7814 29.376 5.7624 51.74 0.90303 20.586 2.5223 36.303 3.8824 37.684 0.72404 0.7349 7.9942 1.5945 19.167 2.2662 9.9 0.59522 19.284 1.1874 20.854 1.316 2.5749 0.21088 3.3329-0.54942 7.7434-7.7662 10.883-17.807 17.096-32.515 21.968-52 1.7392-6.9559 2.2712-12.066 2.3424-22.5 0.0881-12.921-0.0347-13.779-2.8649-20-8.9289-19.628-27.299-34.158-49.349-39.034-41.371-9.1487-103.9 17.02-164.69 68.922-12.826 10.95-38.699 36.467-49 48.326-22.26 25.626-43.57 54.573-64.991 88.285-2.0969 3.3-4.8225 7.575-6.057 9.5-3.1791 4.9572-13.168 21.732-19.947 33.5-3.1687 5.5-6.5458 11.35-7.5047 13-10.747 18.493-13 22.484-13 23.035 0 0.3525 1.6875 0.3958 3.75 0.0962 2.0625-0.29958 9.375-1.2622 16.25-2.1391zm126.5-9.3626c3.3-1.0204 7.575-2.5674 9.5-3.4377s6.65-2.7636 10.5-4.2073c18.597-6.9736 20.468-7.8495 19.288-9.0298-0.6488-0.6488-13.385 1.8071-21.788 4.2014-20.601 5.8698-31.85 11.624-26.75 13.682 2.0844 0.84109 3.0158 0.71944 9.25-1.2083zm18-19.042c8.25-2.6998 20.85-7.0199 28-9.6003s15.25-5.4952 18-6.4774c15.478-5.528 51.714-23.223 68-33.207 11.303-6.9288 25.908-17.767 35.403-26.273 9.9982-8.9565 24.836-25.125 23.909-26.052-0.24051-0.24051-5.809-0.89825-12.374-1.4616-13.785-1.1829-21.22-2.5644-23.652-4.3948-2.8762-2.1646-5.8614-10.561-7.852-22.084-2.1454-12.42-2.74-20.46-3.3956-45.915-0.25323-9.8328-0.63619-18.054-0.85102-18.269-0.34815-0.34816-8.8525 8.7721-23.034 24.702-7.4169 8.3314-22.825 27.678-27.83 34.944-4.3835 6.3637-4.5911 6.5145-9.9003 7.1904-2.9826 0.37972-15.548 1.1953-27.923 1.8124-24.184 1.206-42.454 3.2994-44.642 5.1152-4.5958 3.8142 0.89684 16.73 17.957 42.226 3.6228 5.4142 7.3318 12.087 8.2423 14.828 1.5548 4.681 1.5483 5.2674-0.10709 9.6559-0.96932 2.5698-3.2179 6.9223-4.9968 9.6723-2.8803 4.4526-16.65 23.047-19.425 26.232-0.59067 0.67787-3.3135 4.7279-6.0507 9-4.8124 7.511-6.4304 13.27-3.7271 13.266 0.6875-1e-3 8-2.2108 16.25-4.9106zm221.49-6.1081c-0.59479-1.1114-0.81266-2.4555-0.48416-2.9871 2.2258-3.6014 19.819-12.226 34.872-17.094 5.0179-1.623 11.148-3.6138 13.623-4.424 12.782-4.1843 36.709-6.7706 41.066-4.4388 4.319 2.3115 1.5716 3.8114-12.591 6.8738-9.7657 2.1117-23.509 5.9748-30.475 8.5659-1.925 0.71608-6.875 2.506-11 3.9776-4.125 1.4716-9.075 3.3774-11 4.235-5.3611 2.3885-19.814 7.3124-21.463 7.3124-0.80668 0-1.9533-0.9093-2.5481-2.0207zm129.68-28.229c-4.0523-2.9631 2.2935-7.5301 11.645-8.3805 6.0674-0.55173 8.7365 0.68293 7.1117 3.2897-2.6023 4.175-15.297 7.6205-18.756 5.0908zm-123.02-28.347c-1.7895-2.4564-1.79-2.5957-0.0144-4.5576 6.1996-6.8504 47.406-20.838 65.987-22.399 8.7307-0.73364 15.374 0.60422 15.374 3.0962 0 2.2543-3.1685 3.3529-18.739 6.4974-16.839 3.4006-27.292 6.6257-38.761 11.959-20.096 9.3446-20.851 9.5157-23.846 5.4049zm127.6-31.519c-1.8033-1.8527-1.551-3.2615 1-5.5841 3.8293-3.4863 13.114-6.3002 20.788-6.3002 10.916 0 9.2343 3.5491-4.2361 8.943-9.1898 3.6798-15.761 4.7809-17.551 2.9412zm-121.64-19.466c-0.97925-2.5519-0.75334-3.2002 2.143-6.15 4.3085-4.388 16.445-10.327 36.25-17.738 17.379-6.5037 38.84-9.432 43.777-5.9734 4.7772 3.3461 2.663 4.4982-15.441 8.4145-7.6099 1.6462-16.536 3.8743-19.836 4.9515-9.9359 3.2432-17.94 6.214-19 7.0519-1.8568 1.4678-24.162 11.025-25.731 11.025-0.85546 0-1.8285-0.7118-2.1624-1.5818zm125.62-25.975c-5.0921-3.5666-0.96388-8.6415 8.5322-10.489 6.7874-1.3203 13.453-0.857 15.81 1.0989 1.3078 1.0854 1.284 1.4564-0.19803 3.0941-0.92621 1.0235-3.5251 2.3306-5.7752 2.9048-2.2502 0.57417-6.1996 1.9223-8.7766 2.9958-5.6594 2.3576-6.7275 2.4016-9.5921 0.39514z"/>
 </g>
</svg>
